<svg xmlns="http://www.w3.org/2000/svg" fill="none" viewBox="0 0 24 24">
  <path stroke="#EEE" stroke-linecap="round" stroke-linejoin="round" stroke-opacity=".75" stroke-width="2" d="M22.54 6.42c-.1188-.47459-.3607-.90943-.7013-1.26059-.3407-.35117-.7679-.60623-1.2387-.73941C18.88 4 12 4 12 4s-6.88 0-8.6.46c-.47075.13318-.89802.38824-1.23865.73941-.34063.35116-.58256.786-.70135 1.26059-.31479 1.74556-.468765 3.51631-.460001 5.29-.01122 1.787.142771 3.5713.460001 5.33.13096.4598.37831.8781.71814 1.2145.33984.3363.76068.5793 1.22186.7055 1.72.46 8.6.46 8.6.46s6.88 0 8.6-.46c.4708-.1332.898-.3882 1.2387-.7394.3406-.3512.5825-.786.7013-1.2606.3124-1.7324.4663-3.4897.46-5.25.0112-1.78705-.1428-3.5713-.46-5.33v0Z"/>
  <path stroke="#EEE" stroke-linecap="round" stroke-linejoin="round" stroke-opacity=".75" stroke-width="2" d="m9.75 15.02 5.75-3.27-5.75-3.27002V15.02Z"/>
</svg>
