<svg xmlns="http://www.w3.org/2000/svg" fill="none" viewBox="0 0 258 368">
  <ellipse cx="96" cy="356" fill="#000" fill-opacity=".5" rx="95" ry="12"/>
  <rect width="45.0309" height="92.9437" x="120.196" y="255.056" fill="#00ADB5" stroke="#000" stroke-linejoin="round" stroke-width="1.64486" rx="3.51536"/>
  <rect width="45.0309" height="66.1053" x="2.39487" y="281.895" fill="#EEE" stroke="#000" stroke-linejoin="round" stroke-width="1.64486" rx="3.51536"/>
  <rect width="45.0309" height="195.974" x="211.338" y="152.026" fill="#00ADB5" stroke="#000" stroke-linejoin="round" stroke-width="1.64486" rx="3.51536"/>
  <path fill="#00ADB5" stroke="#000" stroke-width="1.39887" d="M62.1686 128.168h46.2994s-7.379 67.434-17.4218 78.49c-10.0425 11.055-62.6014 41.376-62.6014 41.376L10.7444 237.17l32.9973-51.967s-3.6288-20.265 18.4269-57.035Z"/>
  <path fill="#EEE" stroke="#000" stroke-linejoin="round" stroke-width="1.39887" d="m29.1933 247.426-18.4489-10.253-9.33706 10.053s15.74026 9.123 26.72186 12.699l-4.651-6.135 5.7151-6.364Z"/>
  <path fill="#00ADB5" d="m62.366 127.186 50.587-.067s28.122 24.73 31.665 39.239c3.543 14.51-.497 67.166-.497 67.166l-20.446 9.04-21.108-55.617s-22.0693-20.906-40.201-59.761Z"/>
  <path fill="#000" d="m62.366 127.186-.001-.699c-.2388 0-.461.122-.5892.324-.1282.201-.1447.454-.0437.671l.6339-.296Zm50.587-.067.462-.525-.198-.174h-.265l.001.699Zm31.168 106.405.282.64.383-.169.032-.417-.697-.054Zm-20.446 9.04-.654.248.262.69.675-.298-.283-.64Zm-21.108-55.617.654-.249-.057-.149-.116-.11-.481.508Zm-40.2001-59.062 50.5871-.066-.002-1.399-50.587.067.0019 1.398Zm81.4711 105-20.446 9.039.566 1.28 20.445-9.04-.565-1.279Zm-19.509 9.431-21.108-55.618-1.308.497 21.108 55.617 1.308-.496Zm-21.762-55.369.481-.508s-.001 0-.001-.001l-.002-.002c-.003-.002-.006-.006-.011-.01-.01-.01-.026-.025-.046-.044-.041-.04-.103-.099-.184-.179-.163-.16-.407-.401-.723-.722-.633-.641-1.56-1.604-2.7302-2.881-2.3402-2.553-5.6526-6.366-9.5314-11.391-7.7579-10.049-17.7792-24.946-26.8196-44.319l-1.2677.592c9.0913 19.482 19.1705 34.466 26.98 44.582 3.9049 5.059 7.243 8.901 9.6073 11.482 1.1822 1.29 2.1206 2.264 2.7656 2.918.322.326.571.573.74.738.085.083.149.145.193.187.022.021.038.037.05.048.005.006.01.01.013.013l.003.003c.001 0 .001.001.001.001s.001 0 .482-.507Zm10.386-59.828-.461.526.001.001s.002.001.003.003c.003.003.008.007.015.013.013.011.033.029.059.052.053.047.132.117.234.208.206.184.508.455.894.806.773.702 1.882 1.721 3.224 2.99 2.685 2.539 6.3 6.073 10.024 10.057 3.726 3.987 7.551 8.414 10.662 12.739 3.121 4.341 5.478 8.518 6.33 12.01l1.359-.331c-.918-3.763-3.406-8.118-6.554-12.495-3.158-4.392-7.027-8.868-10.775-12.878-3.749-4.011-7.386-7.566-10.085-10.118-1.349-1.276-2.465-2.302-3.244-3.009-.39-.354-.695-.628-.903-.814-.104-.093-.184-.164-.238-.212-.027-.024-.048-.042-.061-.054-.007-.006-.013-.011-.016-.014l-.004-.004h-.001c-.001-.001-.001-.001-.463.524Zm30.985 39.405c.866 3.543 1.278 9.483 1.398 16.462.119 6.959-.054 14.887-.337 22.37-.283 7.482-.677 14.511-1.001 19.67-.161 2.58-.305 4.692-.408 6.158-.052.734-.094 1.306-.122 1.694-.015.194-.026.343-.033.442-.004.05-.007.088-.009.113-.001.013-.002.022-.002.029 0 .003-.001.005-.001.007v.001c0 .001 0 .001.698.054.697.054.697.054.697.053v-.002c0-.001 0-.004.001-.007 0-.006.001-.016.002-.029.002-.025.005-.063.008-.114.008-.1.019-.249.034-.444.028-.39.07-.963.122-1.698.104-1.47.248-3.585.41-6.169.323-5.167.718-12.209 1.002-19.705.284-7.495.457-15.452.337-22.447-.119-6.974-.53-13.058-1.437-16.769l-1.359.331Z"/>
  <path fill="#F5B9AB" fill-rule="evenodd" d="M106.736 44.6845c1.15-.4198 2.246-1.0333 3.246-1.8852 7.548-6.4305 4.311-16.1322-.257-21.1832-4.567-5.0509-32.5112-3.0362-19.3292 20.3628.0555.0334.1121.067.1697.1009 1.4737 4.6895.2308 8.7119-1.2605 13.5381-.6082 1.9685-1.2578 4.0706-1.7812 6.4063l13.9812-1.0017c3.842-5.218 5.299-10.4778 5.231-16.338Z" clip-rule="evenodd"/>
  <path fill="#000" d="m109.982 42.7993.533.626-.533-.626Zm-3.246 1.8852-.282-.7726c-.328.1196-.545.4332-.541.7822l.823-.0096Zm2.989-23.0684-.609.5517.609-.5517ZM90.3958 41.9789l-.7165.4036c.0698.1239.1704.2275.2922.3009l.4243-.7045Zm.1697.1009.7846-.2466c-.0611-.1944-.1923-.3593-.368-.4625l-.4166.7091ZM89.305 55.6179l.7858.2428-.7858-.2428Zm-1.7812 6.4063-.8025-.1798c-.0569.2537.0096.5194.1793.7165.1697.1971.4226.3022.682.2837l-.0588-.8204Zm13.9812-1.0017.058.8203c.24-.0172.461-.1388.604-.3326l-.662-.4877Zm7.944-18.8492c-.921.7845-1.931 1.3502-2.995 1.7386l.563 1.5452c1.237-.4511 2.419-1.1125 3.498-2.0318l-1.066-1.252Zm-.333-20.0055c2.188 2.4196 4.05 5.9524 4.464 9.615.41 3.6247-.592 7.3748-4.131 10.3905l1.066 1.252c4.009-3.4147 5.163-7.7307 4.699-11.8273-.459-4.0587-2.499-7.9022-4.879-10.5335l-1.219 1.1033ZM91.1124 41.5752c-3.2402-5.7515-3.8695-10.0435-3.1013-13.1631.7628-3.0974 2.9481-5.2159 5.7452-6.54 2.8087-1.3295 6.1778-1.8246 9.1267-1.6743 1.47.075 2.812.3094 3.905.6654 1.109.361 1.892.8235 2.328 1.3046l1.219-1.1033c-.706-.7817-1.796-1.3611-3.038-1.7654-1.257-.4092-2.745-.6632-4.331-.744-3.1635-.1613-6.813.3627-9.9135 1.8303-3.112 1.4732-5.7265 3.9299-6.6385 7.6334-.9066 3.6813-.0856 8.4158 3.2653 14.3637l1.4331-.8073Zm-.1303-.2045c-.0551-.0324-.109-.0645-.1619-.0963l-.8487 1.409c.0581.035.1172.0701.1774.1055l.8332-1.4182Zm-.8913 14.49c1.4807-4.7917 2.821-9.0578 1.2593-14.0275l-1.5692.4931c1.3857 4.4095.2403 8.1881-1.2616 13.0488l1.5715.4856Zm-1.7644 6.3434c.5153-2.2995 1.1553-4.3722 1.7644-6.3434l-1.5715-.4856c-.6074 1.9657-1.2665 4.0974-1.798 6.4693l1.6051.3597Zm13.1196-2.002-13.981 1.0018.1176 1.6407 13.9804-1.0018-.117-1.6407Zm4.467-15.508c.067 5.6947-1.342 10.7769-5.071 15.8407l1.325.9754c3.956-5.3723 5.462-10.8096 5.391-16.8353l-1.645.0192Z"/>
  <path fill="#00ADB5" stroke="#000" stroke-width="1.64486" d="M87.8876 27.849c-2.1877 3.0437.1686 10.5611 1.9072 12.4413-14.4061-7.9935-5.2858-26.0286-.8408-22.7398.7243-6.6679 8.3754-9.02043 13.591-3.3812 13.077-10.56017 13.765 7.434 9.149 10.1705-4.615 2.7366-10.215.1305-13.1213 1.5417-2.9062 1.4111-4.6995 9.9589-5.6409 5.2147-.9413-4.7441-2.3096-7.0519-5.0442-3.2472Z"/>
  <path fill="#EEE" stroke="#000" stroke-linejoin="round" stroke-width="1.64486" d="M114.642 128.265c15.079-10.029 8.786-44.6837 6.641-54.5367-.386-1.7727-.958-3.4733-1.651-5.1497-5.7-13.7785-19.7612-24.8763-33.2285-18.4759-28.6858 13.6331-24.4212 57.1203-24.1504 78.4883l52.3889-.326Z"/>
  <path fill="#EEE" d="M159.997 81.3722 147.895 66.603l-40.779 28.5303-13.1798-26.5294-17.0663 26.5292S95.3584 123.848 104.75 123.014c17.116-1.521 55.247-41.6418 55.247-41.6418Z"/>
  <path stroke="#000" stroke-width="1.64486" d="m94.8392 70.5397 12.1618 23.7792 40.893-27.7154 12.103 14.7692s-35.946 39.8723-56.952 41.7383c-6.6111.588-25.8722-28.2651-25.8722-28.2651"/>
  <path fill="#F5B9AB" stroke="#000" stroke-linejoin="round" stroke-width="1.64486" d="m151.918 63.938-4.793 3.0765 12.033 15.2453 3.784-3.0661c4.027-3.262 4.665-9.1628 1.429-13.21-3.015-3.7698-8.39-4.6529-12.453-2.0457Z"/>
  <path fill="#EEE" stroke="#000" stroke-linejoin="round" stroke-width="1.39887" d="m144.369 231.606-20.694 10.789 3.56 13.482 27.631-17.016-8.13 1.104-2.367-8.359Z"/>
</svg>
