<svg xmlns="http://www.w3.org/2000/svg" fill="none" viewBox="0 0 24 24">
  <path stroke="#EEE" stroke-linecap="round" stroke-linejoin="round" stroke-width="2" d="M22 16.92v3c.0011.2785-.0559.5541-.1675.8093s-.2752.4843-.4804.6725c-.2052.1883-.4475.3317-.7113.4209-.2639.0892-.5434.1223-.8208.0973-3.0772-.3344-6.033-1.3859-8.63-3.07-2.41617-1.5354-4.46466-3.5839-6-6-1.69002-2.6088-2.74176-5.57903-3.07-8.67003-.02499-.27653.00788-.55523.0965-.81837.08863-.26314.23107-.50494.41827-.71.18719-.20507.41504-.36892.66902-.4811.25399-.11219.52855-.17026.80621-.17053h3c.48531-.00477.95579.16708 1.32376.48354.36797.31645.60832.75591.67624 1.23646.12662.96007.36145 1.90273.7 2.81.13455.35793.16366.74692.08391 1.12089-.07976.37396-.26505.71723-.53391.98912L8.09 9.90997c1.42356 2.50353 3.4965 4.57643 6 6.00003l1.27-1.27c.2719-.2689.6152-.4542.9891-.5339.374-.0798.763-.0507 1.1209.0839.9073.3385 1.8499.5734 2.81.7.4858.0685.9294.3132 1.2465.6875.3172.3743.4857.8521.4735 1.3425Z"/>
</svg>
