<svg xmlns="http://www.w3.org/2000/svg" fill="none" viewBox="0 0 24 24">
  <g clip-path="url(#a)">
    <path fill="#fff" d="M19 4h-1.1c-.2321-1.12859-.8462-2.14265-1.7387-2.87128C15.2687.40009 14.1522.00145452 13 0h-2C9.8478.00145452 8.73132.40009 7.83875 1.12872 6.94618 1.85735 6.3321 2.87141 6.1 4H5c-1.32559.00159-2.59644.52888-3.53378 1.46622C.528882 6.40356.00158786 7.67441 0 9v10c.00158786 1.3256.528882 2.5964 1.46622 3.5338C2.40356 23.4711 3.67441 23.9984 5 24h14c1.3256-.0016 2.5964-.5289 3.5338-1.4662C23.4711 21.5964 23.9984 20.3256 24 19V9c-.0016-1.32559-.5289-2.59644-1.4662-3.53378C21.5964 4.52888 20.3256 4.00159 19 4Zm-8-2h2c.6183.00256 1.2206.19608 1.7247.55409.5041.358.8852.863 1.0913 1.44591H8.184c.20608-.58291.58723-1.08791 1.0913-1.44591C9.77937 2.19608 10.3817 2.00256 11 2ZM5 6h14c.7956 0 1.5587.31607 2.1213.87868C21.6839 7.44129 22 8.20435 22 9v3H2V9c0-.79565.31607-1.55871.87868-2.12132C3.44129 6.31607 4.20435 6 5 6Zm14 16H5c-.79565 0-1.55871-.3161-2.12132-.8787C2.31607 20.5587 2 19.7956 2 19v-5h9v1c0 .2652.1054.5196.2929.7071S11.7348 16 12 16c.2652 0 .5196-.1054.7071-.2929S13 15.2652 13 15v-1h9v5c0 .7956-.3161 1.5587-.8787 2.1213C20.5587 21.6839 19.7956 22 19 22Z"/>
  </g>
  <defs>
    <clipPath id="a">
      <path fill="#fff" d="M0 0h24v24H0z"/>
    </clipPath>
  </defs>
</svg>
