<svg xmlns="http://www.w3.org/2000/svg" fill="none" viewBox="0 0 535 580">
  <ellipse cx="174" cy="568" fill="#000" fill-opacity=".5" rx="174" ry="12"/>
  <path stroke="#00ADB5" stroke-linecap="round" stroke-linejoin="round" stroke-opacity=".5" d="M184.862 414.09c-1.258.194-2.738.296-3.038 1.855-.232 1.208-.144 2.451.552 3.499 1.189 1.79 2.955 2.835 5.083 2.466 1.902-.33 4.515-2.123 4.515-4.351 0-1.256-.87-2.52-1.589-3.46-.771-1.007-1.437-2.067-2.408-2.891-1.309-1.111-2.366-1.22-3.544.09-.644.717-1.253 1.695-1.535 2.634-.139.463-.037.834-.037 1.298 0 .618-.11-.294 0-.6"/>
  <path stroke="#00ADB5" stroke-linecap="round" stroke-linejoin="round" stroke-opacity=".5" d="M191.381 417.63c1.071.989 1.978 1.883 3.871 1.931 1.325.034 2.65-.31 3.892-.681.889-.265 3.74-1.67 1.43-1.783"/>
  <path stroke="#00ADB5" stroke-linecap="round" stroke-linejoin="round" stroke-opacity=".5" d="M202.42 409.003c-1.413 1.623-3.362 4.804-2.63 7.242.257.857.631 1.434 1.115 2.167.974 1.473 2.484 1.014 3.853.629.992-.279 2.172-1.158 2.552-2.158.524-1.38-.569-3.538-1.482-4.488-1.02-1.061-1.828-2.352-2.964-3.281-.302-.247-.531-.515-.926-.424-.443.103-.625.544-.037.544m100.387-222.652c-1.258.194-2.738.296-3.038 1.855-.232 1.208-.144 2.451.552 3.499 1.189 1.79 2.955 2.835 5.083 2.466 1.902-.33 4.515-2.123 4.515-4.351 0-1.256-.869-2.52-1.589-3.46-.771-1.008-1.437-2.067-2.407-2.891-1.31-1.111-2.367-1.22-3.544.09-.644.717-1.254 1.695-1.535 2.634-.139.463-.038.834-.038 1.298 0 .618-.11-.294 0-.6"/>
  <path stroke="#00ADB5" stroke-linecap="round" stroke-linejoin="round" stroke-opacity=".5" d="M308.807 190.122c1.071.988 1.978 1.883 3.871 1.931 1.325.034 2.65-.31 3.892-.681.889-.265 3.74-1.67 1.43-1.783"/>
  <path stroke="#00ADB5" stroke-linecap="round" stroke-linejoin="round" stroke-opacity=".5" d="M319.846 181.495c-1.413 1.623-3.362 4.803-2.63 7.242.257.857.631 1.434 1.115 2.166.974 1.474 2.484 1.015 3.853.63.992-.279 2.172-1.158 2.552-2.158.524-1.381-.569-3.538-1.482-4.488-1.02-1.061-1.827-2.352-2.963-3.281-.303-.247-.532-.515-.927-.424-.443.103-.625.544-.037.544m-125.394-42.331c7.253-3.595 13.116-9.54 19.012-15.146 4.634-4.406 9.493-8.759 14.607-12.561 1.009-.751 2.435-2.26 3.799-1.617 1.351.638 2.131 2.374 3.199 3.402 2.631 2.532 4.996 5.626 7.159 8.601 2.382 3.275-1.189 5.088-3.397 7.232-2.507 2.436-4.901 4.948-7.64 7.097-2.604 2.043-4.695 4.859-7.079 7.172-3.632 3.525-7.029 7.278-10.65 10.806-2.156 2.101-4.63 3.815-6.706 5.99-.727.762-1.4 1.77-2.239 2.404-.674.51-1.607-1.45-1.846-1.819-1.904-2.93-4.854-4.934-6.718-7.999-1.172-1.927-1.961-4.305-3.364-6.065-.67-.84-2.344-2.731-1.611-3.958.749-1.253 2.876-1.853 4.037-2.75.904-.7 2.003-1.563 3.033-2.05.748-.353 1.482-.98 2.151-1.462 1.761-1.27-.105-.727-1.296-.255"/>
  <path stroke="#00ADB5" stroke-linecap="round" stroke-linejoin="round" stroke-opacity=".5" d="M195.041 145.148c4.416 2.844 8.376 6.96 11.823 11.019.088.103.927.711.799.936-.247.435-3.113-1.528-3.387-1.724m-4.857-14.343c3.579 1.067 5.713 3.096 8.603 5.267 1.287.967 2.599 1.84 3.754 2.978.543.534.929 1.237 1.431 1.813.687.789-2.119-.916-2.45-1.113m-6.137-12.132c2.505 2.352 5.023 4.672 7.607 6.93.981.857 2.096 1.644 2.943 2.655 1.505 1.793-.466-.534-1.135-1.191m-5.905-10.637c1.858 1.175 3.799 2.314 5.372 3.899.646.651 1.181 1.417 1.871 2.019.85.742 1.595 1.608 2.45 2.329 1.219 1.027 1.402 1.327-.045.038m-5.123-11.737c2.05 1.67 3.947 3.365 5.661 5.401.76.902 1.371 1.943 2.335 2.635.883.634 1.501.817.468-.213m-4.108-11.34c1.805 1.411 3.584 2.699 5.026 4.517.66.832 1.181 1.788 1.918 2.555 1.497 1.559.468.773-.615-.285m-2.311-10.437c2.534 2.522 4.656 5.476 7.195 7.968 1.709 1.677-.74-1.011-1.141-1.489m-1.149-9.381c2.133-.906 4.346-1.986 5.492-4.2.316-.611.723-1.143.853-1.831.178-.945.144-.539-.53.072m-2.381 9.007c1.691-1.633 3.581-3.417 4.821-5.489.618-1.034 1.795-2.296.149-.8m.452 9.711c1.54-1.742 2.911-3.363 4.33-5.184.458-.589 1.854-1.353.174-.886m-5.73 5.19c1.612-1.438 3.436-3.113 4.714-4.928.341-.485.603-1.024.916-1.527.522-.843.556-.559-.238-.472"/>
  <path stroke="#00ADB5" stroke-linecap="round" stroke-linejoin="round" stroke-opacity=".5" d="M199.395 148.053c8.035-3.396 10.017-12.613 16.565-17.825.796-.634 1.443-1.339 2.372-1.778.621-.293 1.388-.434 1.954-.809.344-.229 3.208-2.506 1.218-1.565"/>
  <path stroke="#00ADB5" stroke-linecap="round" stroke-linejoin="round" stroke-opacity=".5" d="M195.654 145.588c.902-1.141 1.702-2.117 2.846-2.942.188-.136.477-.158.632-.339.305-.358.768-.882.886-1.343.464-1.819 2.731-1.483 3.935-2.395 1.145-.867 2.247-1.746 3.415-2.603 1.286-.944 1.881-1.772 2.914-2.982.949-1.112 1.87-2.236 2.874-3.288.822-.861 2.113-1.644 2.636-2.746.59-1.243 2.098-2.666 3.456-2.436.467.08 3.893 2.146 1.654.825m-17.977 24.694c6.037-3.313 9.388-10.538 13.466-15.996 1.502-2.01 3.649-3.346 5.221-5.321.673-.845 2.158-1.742.431-1.727M205.08 152.08c5.471-3.5 8.974-10.011 12.955-15.17 1.81-2.348 3.558-4.744 5.391-7.073.836-1.061 2.293-1.724.423-.637m-16.613 26.532c3.413-3.464 6.17-7.202 8.963-11.209 1.698-2.436 3.167-5.175 5.161-7.368 1.144-1.259 2.025-2.733 3.064-4.067.419-.538.707-1.164 1.138-1.697.968-1.201.293-.115-.382.537m-17.142 25.322c1.699-1.732 4.188-3.398 5.322-5.645.411-.815 1.429-2.784 2.144-3.283.943-.66 1.393-2.063 2.08-2.945.716-.919 1.416-1.816 2.193-2.69.728-.82.961-2.259 1.862-2.964 1.004-.786 1.493-2.003 2.294-2.941.693-.812 2.012-1.653 2.872-2.274.477-.343.81-.812 1.35-1.067 1.096-.518.385-.253-.618-.292m-1.741-10.415c1.406.385 3.139.65 4.419 1.447.827.514 1.546 1.03.041.094m-3-3.982c2.004.545 3.421 1.156 5.056 2.265 1.069.725.897.524-.216-.174m-2.408-4.554c1.721 1.007 3.391 2.152 5.171 3.029 1.047.516.498.48-.31.074m-3.476-5.071c1.81.857 3.479 1.711 5.145 2.79.76.492.071.524-.506.126"/>
  <path stroke="#00ADB5" stroke-linecap="round" stroke-linejoin="round" stroke-opacity=".5" d="M226.684 121.876c1.368-1.692 2.74-3.295 3.985-5.029.354-.492 2.509-3.235 1.577-1.831m-4.125 9.83c1.779-1.637 4.344-3.819 4.918-6.264.169-.72.536-1.439 1.073-1.935.545-.502 1.115-.728.301.118m-7.719 8.026c1.897-2.127 3.519-3.556 4.591-6.175.278-.68.598-1.244 1.055-1.78.484-.567 1.179-1.098.244-.083m1.16 9.085c.874.576 1.75 1.11 2.658 1.59.375.198-.089-.185-.249-.248m-.706-4.19c.059.052 3.493 3.115 2.884 2.432m-.844-3.542c.758.759 3.078 2.977 2.261 2.288"/>
  <path stroke="#00ADB5" stroke-linecap="round" stroke-linejoin="round" stroke-opacity=".5" d="M232.729 127.047c1.255-1.216 4.009-3.627 4.684-5.497.266-.737 1.484-1.684.338-.671"/>
  <path stroke="#00ADB5" stroke-linecap="round" stroke-linejoin="round" stroke-opacity=".5" d="M232.887 127.41c.119.1 2.521 2.791 3.033 1.486.262-.666.602-1.534 1.243-1.901 1.126-.644 1.333-2.673 2.485-3.217 1.306-.618 1.184-1.653-.032-2.02-.478-.144-.101-1.125-.598-1.048-.454.071-.695-.104-1.203-.007m-12.177 1.668c.824 1.638.98 2.231 2.309 2.914.358.185.827-.071 1.099.073.539.284 1.603.29 2.005-.226.809-1.039 1.106-1.709 2.345-2.341.782-.398 1.41-1.338 1.772-2.118.397-.857 1.113-1.502 1.533-2.362.178-.366-1.264-1.309-1.277-1.943-.004-.18-1.716-.185-2.001-.335-.345-.183-.504-.44-.669-.819-.242-.555-.671.134-1.321.186m-34.319 27.747c1.945.769 3.642 1.761 5.394 2.859 1.52.954 3.239 1.461 4.75 2.385 1.076.658 2.192 2.16 2.986 3.146.265.329.462.636.65 1.007.43.85-.018-1.205-.063-1.43m5.07-23.413c.54.59 2.724 3.844 2.293 1.398m2.204 224.473c.231 1.239.82 2.044 1.276 3.171.311.768.892 1.363 1.215 2.116.349.813.872 1.769 1.359 2.493.418.62.692 1.208 1.218 1.757.932.968 1.636 2.123 2.572 3.078 1.359 1.388 3.662 3.199 5.643 3.085.637-.037 1.341.168 1.966.07.535-.084 1.185-.112 1.722-.016.882.158 1.838-.001 2.682.189.455.103.951-.047 1.411.042.598.115 1.298.144 1.907.144 1.994 0 3.982-.013 5.97-.275 1.077-.143 2.145.229 3.211.032 1.001-.186 2.334.006 3.275-.423 1.157-.527 2.308-1.355 3.202-2.285.448-.466.789-1.023 1.092-1.6.399-.757.62-1.574 1.021-2.33 1.397-2.634 2.194-5.567 3.325-8.313.266-.648.705-1.172 1.024-1.77.081-.151.117-.345.249-.49.493-.543-.451-.601-.886-.806"/>
  <path stroke="#00ADB5" stroke-linecap="round" stroke-linejoin="round" stroke-opacity=".5" d="M220.176 353.687c.99-1.346 1.829-2.336 3.267-3.097 1.203-.638 2.452-1.395 3.54-2.228 1.671-1.278 3.971-1.848 6.006-2.233 2.215-.419 4.395-.909 6.65-.909.697 0 1.387.218 2.085.23.835.015 1.672.042 2.503.116 1.276.113 2.586.086 3.863.115 1.783.04 3.489 1 5.272 1.149 1.06.088 2.297.253 3.328.553.386.113.826.189 1.187.371.448.227.763.611 1.175.877 1.33.861 2.816 1.266 4.253 1.92.441.201 1.198.544 1.686.544.671 0 .636 1.29.636 0m-.111.807c-.821 1.145-1.406 1.581-2.571 2.25-.914.524-1.927.896-2.952 1.091-.957.182-2.002.325-2.971.406-.807.067-1.63-.03-2.455.067-1.863.221-3.744.721-5.542 1.268-2.566.78-5.044.861-7.695 1.011-2.893.163-5.795-.067-8.63-.679-.956-.206-1.967-.021-2.94-.06-1.072-.044-2.123-.351-3.131-.714-.425-.153-.816-.387-1.261-.493-.522-.123-1.051-.075-1.569-.205-.721-.181-1.562-.508-2.171-.947-.265-.191-.663-.348-.871-.637-.06-.084-.138-.271-.138-.371 0-.238-.188-.178.111.029m20.982 9.677c.673-.078 1.564-.065 1.285-.966-.089-.29-.315-.321-.553-.404-.712-.247-1.987.232-2.255 1.005-.48 1.388.429 2.888 1.858 2.407.389-.131 1.078-.417 1.325-.784.297-.441-.148-.311-.442-.74"/>
  <path stroke="#00ADB5" stroke-linecap="round" stroke-linejoin="round" stroke-opacity=".5" d="M239.663 362.097c1.074-.448 1.624-.633 2.71-.633.438 0 .657-.032 1.043.23.637.434.856 1.258.79 1.984-.056.613-.251 1.453-.458 2.035-.154.433-.536.508-.926.589-.357.074-1.134-.133-1.415.029-.298.172-1.209.23-1.439-.09-.212-.294-.44-.421-.594-.777-.147-.341-.214-.666-.332-1.005-.163-.465-.455-1.736.151-2.016.355-.164.507-.263.913-.263.116 0 .214.09.332.09.17 0-.328-.115-.498-.115m1.661-4.666c.781-1.05 1.493-2.134 2.3-3.155.434-.549.973-1.021 1.44-1.546 1.338-1.503 2.701-3.149 3.721-4.906 1.005-1.73 2.377-3.615 3.866-4.915.787-.687 1.49-1.445 2.175-2.237.664-.768.97-1.841 1.599-2.653.487-.628 3.677-4.903 4.232-2.304.218 1.022-.74 1.736-1.341 2.362-.682.71-1.368 1.612-1.95 2.419-.561.778-1.242 1.462-1.787 2.247-.741 1.067-2.089 1.831-2.629 3.04-.446.997-1.186 1.799-1.741 2.723-.77 1.281-1.671 2.351-2.578 3.523-.718.929-1.843 1.693-2.352 2.753-.426.884-1.179 1.257-1.867 1.83-.3.249-.664.388-.929.733-.088.115-.246.247-.329.118-.047-.073-.227.092-.194.173.118.287-.169-.689-.197-.781"/>
  <path stroke="#00ADB5" stroke-linecap="round" stroke-linejoin="round" stroke-opacity=".5" d="M241.158 357.777c.212.112 1.55 1.169 1.55.317 0-.258.318-.688.431-.95.085-.199-.68-.009-.794.144-.149.198-.437.36.031.374.359.011.64-.15.913-.371.079-.064 1.135.11.194.083-.5-.015-.987 0-1.467 0-.415 0 .426-.115.548-.115.096 0-.702.494-.84.333-.034-.04-.092-.148.043-.218m-18.214-3.859c.062.034 2.041 1.112 2.049.979.009-.161-.102-.302-.025-.461.335-.696.768-.362 1.344-.093.449.211-.233-2.12 1.123-1.136.7.509.887.428.772-.425-.088-.646.127-.648.661-.58.363.047.623.129.83-.23.252-.436.535-.684 1.049-.496.426.156.805.595 1.098.035.129-.246.02-.983.427-.841.256.088.592.435.883.326.221-.083.39-.794.64-.682.26.118.526.632.855.509.159-.059.453-.599.141-.534m-4.041 2.592c.686.581 3.256 3.684 4.011 1.366.135-.415.156-1.237.535-.557.312.561.782.95 1.292.42.338-.352.488-.949.972-1.133.443-.169.769.699 1.138.192.297-.409.153-1.112-.283-1.357-.144-.081-.184.197-.246.262m-1.495-2.764c1.069-.192 2.416-.581 3.229.416.377.461.341 1.051.092 1.574-.182.382-.671.573-.984.198-.256-.307.272-.814.461-1.001.648-.643 1.609.386 1.812 1.085.169.583-1.363 1.935-1.178 1.356m14.56-1.67c.318-.114 2.36-.798 1.968.333-.201.58-.971.891-1.476 1.081-.239.09-.856.075-.455-.288.347-.313.836-.46 1.291-.422 1.777.15-.707 2.274-1.218 2.567-.991.569-2.339 1.167-3.377.473"/>
  <path stroke="#00ADB5" stroke-linecap="round" stroke-linejoin="round" stroke-opacity=".5" d="M244.369 347.466c.421.714.928 1.43 1.288 2.18.124.258-.412-.403-.538-.66-.033-.068-.264-.824-.286-.819-.269.063-.333 1.347-.406 1.584-.345 1.122-1.197.692-2.033.608-1.012-.101-1.464.937-2.024 1.6-.447.531-.623.694-.319 1.325.245.511.347 1.007 0 1.469-.272.361-.611.589-.938.887-.3.272.13.227.073.064-.153-.448-1.101-.355-1.411-.333-1.152.079-2.326-.222-3.457-.148-.601.04-1.167.389-1.763.481-.605.093.195.639.422.796.39.271-.764-.575-1.187-.784-.711-.35-1.367-.621-1.735-1.395-.369-.776-.693-1.305-1.316-1.875-.215-.197-.241-.495-.136-.762.243-.617.782-1.119 1.317-1.453"/>
  <path stroke="#00ADB5" stroke-linecap="round" stroke-linejoin="round" stroke-opacity=".5" d="M244.258 349.771c-1.388-1.008-2.533-1.442-4.164-1.671-.574-.08-1.186-.494-1.56-.95-.331-.406-.143-.298-.535.252-.534.753-.931.077-1.614.276-1.047.303-1.946 1.316-3.008 1.504-.291.051-.221-.455-.585-.237-.612.367-1.08.715-1.796.832-.433.071-1.253.367-1.187.915m23.86-.921c1.339.134 2.696.116 4.029.265.47.052.71.25 1.04.57.298.288.763.968 1.19 1.005.616.053.935-.213 1.51-.4.347-.113 1.452 0 1.089 0m-9.854.115c-1.439.987-2.208 2.484-3.749 3.382-.305.178-1.239.523-1.169 1.108.051.423 3.17-.902 3.645-1.149m6.643-1.959c.783.606 1.457 1.473 2.436 1.165.265-.083.819-.116.996-.301m190.037-25.975c-4.043.807-6.982 2.022-9.545 5.45-1.623 2.172-1.267 5.591-.203 7.894 1.753 3.795 6.063 5.938 9.951 6.124 4.53.216 10.827-1.169 11.756-6.79.498-3.013-2.269-5.862-3.564-8.333-1.054-2.011-2.641-4.721-4.86-5.571-.905-.347-3.007-.227-3.666.711-.295.419-.673.862-.888 1.332-.173.382.013-.97-.029-1.362"/>
  <path stroke="#00ADB5" stroke-linecap="round" stroke-linejoin="round" stroke-opacity=".5" d="M453.214 337.951c-1.091.584-2.861.97-1.906 2.248.218.292.528.276.793 0 .226-.235 1.367-1.471.524-1.763-1.719-.596-1.09 2.971.138 1.393.659-.848-.264-1.683-1.091-1.166-.986.615-.206 1.69.567.757.583-.704.118-1.243-.516-.583-.568.591.009 1.533.567.734.573-.819-.08-1.513-.771-.795-.8.832.066.745.633.197.571-.552-.442-.471-.771-.038-.764 1.006.433.863.625 0 .284-1.267-.973 1.645-.363-.575"/>
  <path stroke="#00ADB5" stroke-linecap="round" stroke-linejoin="round" stroke-opacity=".5" d="M448.762 333.728c1.163 1.597 2.355 3.111 3.332 4.708.27.442.054.886.203.878.551-.032 1.116-.136 1.703-.136 1.343 0 2.4-.682 3.695-.682 1.568 0 3.871-.423 1.28-1.771m-11.523-9.264c-.244-1.289-1.44-4.411.786-4.08.798.119 1.334.978 1.804 1.521 1.222 1.413 1.092 3.119-.887 3.24-.519.032-1.249 1.101-1.834.34-.662-.861.014-.803.131-1.839.077-.678-.348-.621-.531-1.287-.14-.51.151-1.069.269-1.438"/>
  <path stroke="#00ADB5" stroke-linecap="round" stroke-linejoin="round" stroke-opacity=".5" d="M448.238 325.962c-.012.325-.494 3.258.531 2.778.343-.161.64-.395.779-.765.134-.358-.009-.573-.161-.923-.39-.903-1.523-2.307-1.178-.273.218 1.284 1.595.984 1.702-.242.082-.936-1.052-2.19-1.775-1.12-.511.757.399 2.425.931 1.256.271-.593-.375-2.102-1.062-1.362-.703.758.354 2.358 1.048 1.711.686-.64.22-2.592-.524-1.847-.68.681.34 2.037.858.999.578-1.158-.695-2.031-1.091-.818-.353 1.083.749 2.248 1.004.772.194-1.123-1.789-1.72-1.789-.378 0 1.237 1.062 1.11 1.062-.015 0-1.173-1.135-.909-.662.075.473.985 1.107-.762.574-1.317-.621-.646-1.444.354-.712.977.498.425 1.181-1.338.341-1.665-.724-.283-.323 1.256-.072.908.389-.54-.208-.902.203-.795.363.094 1.243.296 1.492.628.195.262.989 1.719.989 2.097 0 1.157-1.701 1.781-2.677 1.491-.7-.208-.908.307-.662.136.596-.413.72-1.491.72-1.082m0 19.755c-.674 1.489-1.272 2.984-2.066 4.391-.178.316-.513.963-.553 1.332-.106.994.854-2.371 1.048-2.861m14.796-5.723c1.659 2.179 3.487 3.733 4.78 6.124.127.235.348.422.524.605.588.612-1.092-1.306-1.637-1.96"/>
  <path stroke="#00ADB5" stroke-linecap="round" stroke-linejoin="round" stroke-opacity=".5" stroke-width="2" d="M351.495 217.051c1.037 4.072 5.041 19.209 5.998 24.74 2.637 15.228-1.5-5.551-1.511 1.175"/>
  <path stroke="#00ADB5" stroke-linecap="round" stroke-linejoin="round" stroke-opacity=".5" stroke-width="2" d="M344.467 223.634c-.353-6.196-1.689-14.796 6.661-13.911 3.929.417 8.256 2.843 10.705 6.089 3.785 5.016 1.788 12.792-2.301 16.784-2.177 2.124-4.288 3.189-7.137 3.992-4.825 1.361-1.017-5.612-.24-7.524m14.032 2.143c8.297-.462 15.934-2.161 18.902 7.201 1.725 5.441 3.825 12.052 2.387 17.786-1.299 5.181-4.097 8.42-9.214 6.213-7.312-3.154-7.302-9.092-3.322-15.014 1.465-2.18 7.077-6.546 7.081-9.095"/>
  <path stroke="#00ADB5" stroke-linecap="round" stroke-linejoin="round" stroke-opacity=".5" stroke-width="2" d="M381.141 221.104c-.283 2.271-.287 18.34-4.467 18.494-.784.029-1.442.453-2.126.808-2.632 1.363-1.031.136-.049-1.283 2.225-3.214 6.732-2.026 8.989-6.292 2.45-4.632 3.579-6.91.066-10.493-2.462-2.512-1.381-6.783-3.319-.765m13.152-15.051c3.206 7.511 6.137 17.293 11.281 23.832 1.36 1.728 2.123.224 2.102-1.122-.026-1.7-.487-3.416-.961-5.026"/>
  <path stroke="#00ADB5" stroke-linecap="round" stroke-linejoin="round" stroke-opacity=".5" stroke-width="2" d="M384.076 226.055c5.088-2.083 17.581-4.191 19.71-10.802"/>
  <path stroke="#00ADB5" stroke-linecap="round" stroke-linejoin="round" stroke-opacity=".5" stroke-width="2" d="M399.724 206.768c22.052 40.134.568 11.926 11.776 4.585 6.804-4.455 7.372 16.544 9.257 7.461m-1.338-13.427c.8 2.489 3.487 18.92 9.082 15.167 2.501-1.679 5.415-4.879 5.897-8.025.518-3.375-1.509-11.95-6.095-11.027-2.092.422-5.592.523-6.958 2.593-1.32 2-2.152 6.684-.568 1.765m14.267-4.451c6.254-4.178 13.604-5.549 14.556 4.289.119 1.235.141 2.79.685 3.927.631 1.318-.665-3.222-1.893-3.955"/>
  <path stroke="#00ADB5" stroke-linecap="round" stroke-linejoin="round" stroke-opacity=".5" stroke-width="2" d="M434.585 205.176c.283 5.143-.423 12.11 1.886 16.935.079.164.628 1.423.351.733-.547-1.365-.774-2.291-1.805-3.771m-158.711 32.661c-.866 8.359.645 34.095-13.001 32.493-2.845-.333-5.429-.828-6.78-3.617-1.415-2.92-2.586-5.461-2.726-8.778-.174-4.074 1.385-5.997 4.551-7.836 1.111-.644-1.275 1.966-1.487 2.219-1.391 1.663 3.33-.364 5.135-.78"/>
  <path stroke="#00ADB5" stroke-linecap="round" stroke-linejoin="round" stroke-opacity=".5" stroke-width="2" d="M293.824 255.75c-6.902.672-16.643 2.034-17.757 11.017-.604 4.873 6.359 5.465 9.382 7.125 5.192 2.851 9.132 12.151 3.308 16.244-4.051 2.846-7.114 1.334-11.054 1.618-4.003.288-1.216-1.247 1.157-1.668m52.363-255.5126c-.553 5.7672-.89 11.5934-1.574 17.347-.065.5535-.589 2.7388.03.972.453-1.2918.307-2.638 1.034-3.863 1.002-1.6872 5.528-8.1143 7.654-7.4642 4.261 1.303-.04 9.5259-1.26 11.8822-.42.8127-1.567 2.5754-.973 3.4868.791 1.2149 2.255-3.275 2.317-3.4123m9.599-15.1616c-.504 2.5766-4.746 15.2947-.659 17.4013 1.153.5945 3.704-.5277 4.497-1.4951.826-1.0074.394-2.5499.305-3.7191"/>
  <path stroke="#00ADB5" stroke-linecap="round" stroke-linejoin="round" stroke-opacity=".5" stroke-width="2" d="M339.642 38.6382c4.484 1.3874 9.095 2.3111 13.55 3.7425 1.052.3379 1.446.4909 2.012 1.467.881 1.5183-1.458.1314-1.862-.3285m6.577 4.1337c-1.029 3.2328-1.996 6.5062-3.171 9.6875-.233.6325-.269.8638-.394.3807-.122-.4654-.24-.7396-.041-1.2311 1.055-2.612 3.519-6.3659 5.842-7.8248 2.509-1.5755 1.14 3.7164.803 4.7877-.378 1.2031-1.398 4.5006-.238 1.3098.689-1.8989 2.273-6.6182 4.943-5.9313 1.617.416 1.243 2.6905.958 3.8932-.527 2.2179-1.051 4.4209-1.58 6.6462-.773 3.2517-.355 1.4957.209-.8805m12.601-17.9157c-1.611 6.0281-3.587 12.0388-4.975 18.1296-.163.7143-.518 3.3592.575 3.6742 1.039.2993 5.141-2.2655 4.139-3.1546M100.998 286.46c-3.8088 7.529-7.6057 15.065-11.4251 22.588-1.0885 2.145-3.2372 8.705-3.5032 6.296-.3607-3.267 1.5577-7.84 2.3717-10.901 1.1488-4.321 3.488-12.953 9.3169-12.921 4.3997.025 9.3467 6.738 10.0287 10.926.482 2.958 1.883-.382 3.784-1.274m1.234 9.407c2.56 6.194 6.333 16.665 14.103 10.904 3.571-2.647 1.796-7.177-1.728-8.616-8.638-3.526-19.522 6.32-21.676 14.413-2.154 8.092 6.348 10.573 12.197 11.372 3.236.442 2.51-2.436 5.295-3.438"/>
  <path stroke="#00ADB5" stroke-linecap="round" stroke-linejoin="round" stroke-opacity=".5" stroke-width="2" d="M134.317 331.997c-6.71-2.915-15.599-5.514-19.381 3.408-1.822 4.3 6.335 4.805 8.754 4.686 4.621-.226 14.91-11.356 11.443-8.169-3.042 2.797-6.12 6.098-7.371 10.228-.808 2.668.12 8.561 3.092 4.491m29.556-9.062c-9.739.972-21.281 1.481-24.736 12.866-1.698 5.596 2.287 9.488 7.088 11.13 3.356 1.148 6.776-1.344 8.812-3.872m17.681-18.58c-.534.676-24.524 27.881-13.088 28.091 3.166.059 6.415-1.858 8.596-4.013"/>
  <path stroke="#00ADB5" stroke-linecap="round" stroke-linejoin="round" stroke-opacity=".5" stroke-width="2" d="M148.936 344.073c4.605 3.305 9.147 6.805 14.199 9.359 1.312.664 3.499.98 4.402 2.356.508.773-.29-1.063-.379-1.33M97.5584 126.255c3.8656 6.878 16.1406 26.944 11.1576 20.895-3.186-3.867-5.605-8.999-7.625-13.574-2.1192-4.8-4.1092-13.365 3.967-12.931 6.932.374 9.699 7.739 10.918 13.776.538 2.663.675 4.732 1.823 7.154 1.174 2.477 1.239-7.066 1.686-9.542m3.047-19.766c.215 1.04 3.557 24.825 8.406 20.251 2.042-1.926 2.491-6.674 2.753-9.275.819-8.129-2.481-9.133-7.966-10.853-2.616-.821-3.153-.784-3.871 2.019-1.476 5.755.85 4.138 3.83.938m17.935-9.79c-2.695 4.725-6.131 10.283-4.235 16.07.786 2.401 2.615 1.766 3.896.415 2.021-2.133 3.075-5.638 2.963-8.567-.216-5.614-3.596-10.418-7.142-14.4075-.492-.553-4.971-4.395-4.094-1.0964 1.575 5.9249 5.96 11.6239 9.016 16.7739 5.036 8.487 6.58 5.191 8.843-2.776m.478-4.943c1.673 1.623 14.868 11.43 15.278 2.731.037-.789-.93-1.036-1.249-1.708-.821-1.733-2.182-2.877-2.922-3.786"/>
  <path stroke="#00ADB5" stroke-linecap="round" stroke-linejoin="round" stroke-opacity=".5" stroke-width="2" d="M154.445 112.921c-5.225-7.139-12.523-14.5614-5.042-21.619 3.153-2.9737 9.693-.6222 9.522 4.3463-.079 2.3142-.549 8.0367-3.743 8.6407-1.689.319-2.467-.831-.905-2.439m12.095-18.5371c3.378 2.2364 27.449 17.0371 14.841 23.5061-1.965 1.009-3.694-1.341-4.739-2.853-2.354-3.408 4.505-8.2433 4.792-11.8534m4.863-20.6984c-1.966 1.6707-13.244 12.0477-4.375 14.054 4.898 1.1083 9.528-3.9706 13.251-6.5056 5.997-4.084 7.263 3.7746 5.615 8.2101-1.009 2.7164-9.434 11.6058-7.129 4.5387m59.2 365.9386c-7.503 3.928-17.334 11.092-9.223 20.597 3.891 4.56 11.073 2.692 16.197 2.165 1.439-.148 5.411 1.293 4.33.293-2.339-2.163-4.022-2.024-4.724-5.676m15.69-20.013c0 5.755-.051 9.875 5.624 12.113 2.451.967 3.99 1.854 4.64 4.711.735 3.229-1.43 7.907-3.993 9.713-3.168 2.233-7.149 3.012-10.713 1.492-3.053-1.302.321-2.841 1.912-4.33m27.331-30.018c-.995 4.013-5.483 14.746-1.49 18.9 1.611 1.677 4.733.746 6.72 1.229 1.978.481 3.675 2.056 4.893 3.687 1.93 2.581.093 6.493-2.137 8.309-3.459 2.817-8.401 1.58-12.429 1.58-2.198 0-.696-.162.394-1.58m-4.676-82.07c3.899-1.548 11.132-4.012 14.903-6.788 3.981-2.93-.187-3.772-2.306-3.072-3.589 1.187-5.757 5.098-6.973 8.544-3.203 9.071 6.985 19.325 15.55 18.286 7.915-.961 9.018-4.993 10.207-11.177"/>
  <path stroke="#00ADB5" stroke-linecap="round" stroke-linejoin="round" stroke-opacity=".5" stroke-width="2" d="M327.479 394.012c-.886 1.503-9.31 19.549-11.641 11.06"/>
  <path stroke="#00ADB5" stroke-linecap="round" stroke-linejoin="round" stroke-opacity=".5" stroke-width="2" d="M311.789 394.539c3.554 4.943 12.14 22.617 20.752 22.119 1.249-.072-.408-5.075-.506-5.793m3.037-16.326c1.963 11.967 5.896 48.135 3.655 36.221-1.155-6.143-11.704-39.386-2.418-38.006 4.027.599 14.307 6.712 11.613 12.318-1.514 3.152-10.902 4.252-6.777 2.106m13.161-4.213c1.25 6.771 2.454 13.537 3.543 20.334.186 1.164-.064.205-.394-.438-2.071-4.04-4.905-11.238-4.809-15.77.092-4.294 5.77-7.222 8.746-4.126m9.11 7.9c-.131 4.956 3.325 22.307 11.529 17.262 1.176-.723 4.076-2.489 4.162-4.096.046-.857-1.453-1.053-2.025-1.053-1.504 0-1.88-1.941-2.53-3.16"/>
  <path stroke="#00ADB5" stroke-linecap="round" stroke-linejoin="round" stroke-opacity=".5" stroke-width="2" d="M367.971 412.445c4.434-4.772 9.42-11.346 13.357-2.838 1.153 2.491.751 5.492-.197 7.987-1.531 4.031-7.016 5.621-5.567-.409m19.739-14.22c3.47 5.768 17.499 21.316 8.296 28.41-2.945 2.269-4.867 2.259-8.183 2.135-4.681-.174-2.208-1.408-.619-5.266m21.764-27.385c-1.047 1.319-14.581 14.933-6.354 16.384 3.032.535 5.819-1.376 8.604.556 5.025 3.486 3.835 8.211-.787 11.176-2.31 1.483-4.888 2.26-7.311 3.482-1.37.691.09-1.31.281-2.106"/>
  <path stroke="#00ADB5" stroke-linecap="round" stroke-linejoin="round" stroke-opacity=".5" stroke-width="2" d="M404.92 395.066c-1.175.898-13.829 8.205-12.035 12.639 2.264 5.594 3.012-1.292 3.431-3.686"/>
  <path stroke="#00ADB5" stroke-linecap="round" stroke-linejoin="round" stroke-opacity=".5" d="M93.8321 222.793c2.2542-5.53 1.331-10.349 1.331-16.081 0-1.115-.1945-4.511.9317-5.119 1.7759-.959 3.4356-1.599 5.5312-1.599 1.393 0 2.793.042 4.185 0 1.393-.041 2.742-.631 4.119-.806 2.562-.327 5.226.128 7.756.128 2.009 0 4.087.271 6.019.271.343 0 1.742.17 1.967.377.69.633.492 1.648 1.036 2.202"/>
  <path stroke="#00ADB5" stroke-linecap="round" stroke-linejoin="round" stroke-opacity=".5" d="M126.575 202.656c.088 1.632.121 3.922.766 5.517.418 1.033.085 2.409.169 3.509.163 2.113-.14 4.173-.14 6.223 0 2.749.133 5.464.133 8.199 0 2.347-2.204 1.954-3.947 1.624-1.506-.285-3.527.287-5.097.307-3.028.039-6.07.276-9.102.276-2.533 0-4.414-.766-6.746-1.686-1.246-.492-1.999-.383-3.3364-.383-1.2671 0-2.3091-.206-3.5792.207-.7431.241-2.0739.033-2.4966-.759-.5069-.949.5008-1.361.5008-2.138 0-.652-.0788-2.518.1325-.759"/>
  <path stroke="#00ADB5" stroke-linecap="round" stroke-linejoin="round" stroke-opacity=".5" d="M108.944 206.242s.531.276 1.061.828c.53.413 1.646.206 2.585.206.494 0 1.015-.4 1.458-.605.897-.415.362.366.147.812-.237.495.034 1.415.464 1.724.71.512 1.412.07 2.106-.291.289-.15.21-.219.299-.015.121.277.099.679.099.981 0 .687-.043 1.83-.398 2.429-.466.788-.937 1.298-1.686 1.877-.74.573-1.719 1.571-2.703 1.571-1.923 0-3.964-.436-4.927-2.383-.408-.825-1.156-1.501-1.156-2.444 0-.788-.25-1.731 0-2.483.303-.912 1.061-1.778.795-1.778.136.04 1.326-.705 1.856-.429Zm2.188-.483c.745-.287 2.449-.889 2.85-1.827.31-.726-.715-.862-1.26-.862-.661 0-1.444.95-1.62 1.551-.098.335-.191.677-.287 1.016-.047.163.016.281.048.433.024.115 1.036-.438.998-.596"/>
  <path stroke="#00ADB5" stroke-opacity=".5" d="m124.282 221.279-28.8823.66c-3.2298.073-5.8096 2.713-5.8096 5.943 0 3.284 2.6619 5.946 5.9454 5.946h28.8835c3.314 0 6-2.686 6-6v-.551c0-3.367-2.77-6.075-6.137-5.998Z"/>
  <path stroke="#00ADB5" stroke-linecap="round" stroke-linejoin="round" stroke-opacity=".5" d="M101.605 221.777c.44.71.82 1.563 1.326 2.22.254.33.213.263.706.073.822-.317 1.754-.09 2.611-.09.754 0 1.629-.409 2.361-.204.848.238 1.848-.216 2.683-.236 1.005-.025 1.964.073 2.964.073.604 0 1.191-.367 1.75-.367.323 0 1.246.267 1.27-.351.012-.301.141-.593.141-.898 0-.411-.236-.233-.635-.44"/>
  <path stroke="#00ADB5" stroke-linecap="round" stroke-linejoin="round" stroke-opacity=".5" stroke-width="2" d="M245.212 71.0062c.544-.72 1.587-2.0524.126-2.288-.331-.0533-.64-.2554-.964-.1025-.999.4712-1.927 1.5085-1.927 2.7418 0 1.9698 2.076 2.3964 3.584 2.3709 2.545-.043 3.319-2.6229 4.218-4.7126.908-2.111 1.917-4.1877 2.859-6.2835 1.066-2.3715 2.814-4.2607 3.92-6.6104.474-1.0076 1.093-1.8949 1.704-2.8149.947-1.4271 1.622-2.8669 2.299-4.4492.556-1.2983 1.172-2.4838 1.853-3.7126.276-.4969.172-1.2581.699-.7269.399.4034 1.035.6684 1.573.7708 2.352.4481 4.515.9224 6.937.7221 2.449-.2027 4.898-.5679 7.309-1.0538.82-.1652.47.0337.084.5513-.656.8779-1.216 1.8083-1.844 2.6978-.819 1.16-1.107 2.5571-1.592 3.8833-.533 1.4578-1.167 2.8503-1.676 4.3321-.984 2.8637-2.419 5.4753-4.195 7.8788-1.029 1.3929-2.3 3.8257-4.227 3.7272-2.982-.1525-.968-6.2601.457-7.4544.766-.6429 1.605.0492 1.699.9123.128 1.1858-.263 2.8109-1.369 3.3906-1.167.6115-2.062.5382-1.164-1.0392.544-.9543.867.096 1.09-.3707M469.942 283.769c.544-.721 1.587-2.053.125-2.288-.33-.054-.639-.256-.963-.103-.999.471-1.928 1.509-1.928 2.742 0 1.97 2.077 2.396 3.585 2.371 2.545-.043 3.319-2.623 4.218-4.713.908-2.111 1.916-4.188 2.858-6.283 1.066-2.372 2.815-4.261 3.92-6.611.475-1.007 1.094-1.895 1.704-2.815.947-1.427 1.623-2.867 2.3-4.449.556-1.298 1.172-2.484 1.853-3.712.275-.497.172-1.259.698-.727.4.403 1.036.668 1.574.77 2.352.449 4.515.923 6.937.722 2.449-.202 4.897-.567 7.309-1.053.819-.165.47.033.084.551-.656.878-1.216 1.808-1.844 2.698-.819 1.16-1.108 2.557-1.592 3.883-.533 1.458-1.167 2.85-1.676 4.332-.984 2.864-2.419 5.476-4.195 7.879-1.029 1.393-2.3 3.826-4.227 3.727-2.982-.152-.968-6.26.456-7.454.767-.643 1.606.049 1.7.912.128 1.186-.263 2.811-1.369 3.391-1.167.611-2.062.538-1.164-1.039.543-.955.867.096 1.089-.371"/>
  <path stroke="#00ADB5" stroke-linecap="round" stroke-linejoin="round" stroke-opacity=".5" d="M445.913 159.664c-2.495-4.705-2.348-6.049-1.779-10.785.313-2.607.433-5.156 1.067-7.721 1.134-4.588 1.502-10.767-2.048-14.461-6.987-7.269-19.997 3.069-16.057 12.291 1.499 3.51 4.09 6.109 5.961 9.419.751 1.328 1.171 2.767 2.147 4.008.935 1.19 2.097 2.67 2.097 4.148 0 1.248-.357 2.866.491 3.969 1.172 1.524.755.74 2.49.74 1.193 0 2.951-.986 3.913-1.786.687-.572 1.055 1.081 1.055-.511 0-1.367-.423-.23.442-.23m-5.3 5.284c2.362-.732 8.898-2.368 7.385-.344-1.825 2.441-2.606 1.218-4.845 1.736-1.146.264-2.262 3.942-.994 4.02 1.811.111 3.013-2.425 4.857-2.425 1.68 0 1.559 2.299.552 3.114-1.329 1.076-2.858-.08-3.753 1.596-1.414 2.648 2.449 2.217 3.545 1.595 1.104-.627 2.155-1.606 2.968-2.17"/>
  <path stroke="#00ADB5" stroke-linecap="round" stroke-linejoin="round" stroke-opacity=".5" d="M445.913 158.918c-.03.2-.062 1.55-.58 1.55-.279 0-.407-.176-.662-.028-.3.173-.581.581-.868.82-.253.21-1.003.184-1.147.446-.236.429-.713.664-1.159.715-.579.067-.792.369-1.408.227-.188-.044-.207-.169-.383-.169-.272 0-.39.135-.595-.102-.228-.263-.599-.386-.709-.785-.149-.543-.695-.828.114-.492m-3.257-24.926c.988.005 1.804.072 2.141 1.161.229.742.233 1.47.233 2.24 0 .749-.442 1.351-.442 2.055 0 .931.716.779 1.322 1.063.572.268.987.491 1.297 1.091.307.593.075 1.741.034 2.387-.036.555-.29 1.735.079 2.204.201.255 1.297.649.58.09m-13.579-1.896c-.791.547-1.597 1.005-2.481 1.35-.371.145-.859.403-.776-.201m.387-9.075c-1.402.351-2.794.747-4.183 1.136-.231.065.299-.543.319-.561m3.477-8.098c-1.451-.22-2.898-.492-4.342-.76-.665-.123-.946-.032-.571-.619m12.751-6.605c-1.146-.209-2.14-.411-3.177-.951-.485-.252-.952-.555-1.459-.759-.603-.242-.616-.168.055-.587m14.573-2.872c.167 1.219.112 1.949-.362 3.054-.255.595-.472 1.348-.598 1.991-.043.221-.068.347-.212.514-.053.062.144-.678.178-.792m9.439.115c-.366 1.269-.889 2.487-1.202 3.759-.159.643-.059.682.209.032m4.526 5.341c-1.254 1.129-2.283 2.531-3.257 3.918-.122.174-.263.236-.399.377-.307.32.224-.403.289-.504"/>
  <path stroke="#00ADB5" stroke-linecap="round" stroke-linejoin="round" stroke-opacity=".5" stroke-width="2" d="M172.414 247.189c1.835 8.602 3.902 17.223 5.115 25.955.679 4.878-.81-2.161-.996-3.156-.4-2.154-.86-4.062-.86-6.265 0-4.433-.114-8.916-.43-13.354-.221-3.107-3.889-12.358.747-4.64 4.727 7.869 8.065 16.57 11.273 25.154.442 1.183 1.055 2.304 1.539 3.439.265.62-4.697-4.426-6.609-5.511"/>
  <path stroke="#00ADB5" stroke-linecap="round" stroke-linejoin="round" stroke-opacity=".5" stroke-width="2" d="M169.561 266.267c5.298-2.2 16.978-6.348 20.373-12.53 1.422-2.59 1.145-1.393-2.852-.613"/>
  <path stroke="#00ADB5" stroke-linecap="round" stroke-linejoin="round" stroke-opacity=".5" stroke-width="2" d="M185.452 237.438c4.088 8.42 7.049 17.386 8.172 26.733.104.866.297 1.816.883 2.426.109.113-1.961-3.918-2.535-4.994"/>
  <path stroke="#00ADB5" stroke-linecap="round" stroke-linejoin="round" stroke-opacity=".5" stroke-width="2" d="M185.452 237.014c3.17 1.976 14.813 9.273 7.221 13.92-.666.408-1.447.784-1.924 1.437-1.009 1.381-1.13 1.786-.407-.095m5.704-19.501c1.35 9.518 3.667 19.977 3.667 29.676 0 2.141-.344-1.824-.815-2.967m6.519-9.751c2.237 6.938 3.388 11.027-3.169 13.048-2.24.691.467-2.695 1.042-3.109 1.961-1.413 3.914-5.961 1.72-8.244-.873-.908-2.962.239-3.577-.847-.905-1.602 1.125-4.636 2.355-5.418 3.537-2.249 3.092.921 1.629-.094m122.397-124.084c1.35 7.394 6.911 28.985 3.676 22.253-.349-.725-.639-1.34-.669-2.163-.108-3.045-.327-6.228-1.337-9.118-.844-2.417-.668-4.923-.668-7.495 0-.515-.841-4.57-.761-4.597.85-.295 4.36 4.141 4.994 4.906 3.208 3.868 6.452 8.313 8.744 12.846 1.181 2.333 1.536 3.169-1.281 3.535"/>
  <path stroke="#00ADB5" stroke-linecap="round" stroke-linejoin="round" stroke-opacity=".5" stroke-width="2" d="M327.48 135.936c3.135-1.655 6.123-2.978 9.357-4.172m-.334-10.431c3.211 5.004 6.269 10.33 10.006 14.951.533.659 1.653 1.856 1.653.309 0-2.111-1.124-4.293-1.634-6.297-.816-3.206-1.575-6.427-2.265-9.659-.666-3.12-.197-1.955.928.387 1.865 3.879 3.827 7.413 6.424 10.856 1.749 2.319 1.931 1.027 1.931-1.005 0-3.691-1.732-6.727-3.008-10.045-1.362-3.544-1.271-8.382-2.822-11.609-.603-1.255-.687 2.722-.854 4.114m7.686-4.52c.085.408 1.33 10.532 3.528 9.388.963-.501 1.199-2.034 2.19-2.55 1.607-.836 3.344.645 3.973 2.087 1.666 3.812-.251 8.227-3.267 10.547-4.178 3.213-2.748-2.571-2.748-4.173"/>
  <path stroke="#00ADB5" stroke-linecap="round" stroke-linejoin="round" stroke-opacity=".5" stroke-width="2" d="M356.553 108.12c-.601 1.71-1.694 9.648-2.023 6.568-.203-1.902.157-3.348.352-5.178.464-4.339 3.655-.848 2.34-3.129m-22.955 230.127c-.112-.213-4.933-8.852-4.515-9.1.578-.344 1.658-.009 2.339-.275 2.012-.785 3.632-2.405 5.288-3.745 1.741-1.41 4.127 9.648 4.657 11.977.641 2.818 2.312 6.564-.813 8.19-2.818 1.465-6.524 1.023-9.6.952-5.018-.116-8.486-8.686-9.071-12.951-.426-3.105-4.56-13.073-.122-15.067 1.188-.534 3.206-.169 4.495-.169 1.844 0 3.453-1.143 5.328-1.143 2.984 0 3.886 3.878 1.282-.381m9.152 3.047c.52 1.972 2.193 12.919 6.589 10.116.837-.534 1.446-1.828 1.75-2.752.809-2.465.98-4.524-.834-6.412-1.36-1.414-3.985-4.301-5.959-4.38-4.898-.196-.577 5.512-1.18 4.571m.366-18.665c3.616 5.949 9.072 12.491 11.267 19.342.28.874.29 1.468.814 2.286.79 1.233 1.164 3.023 1.912 1.142 1.083-2.723 3.551-5.14 5.491-7.237 2.394-2.586 2.721-1.82-1.546-1.82m7.322-15.617c-.454 1.067-7.351 15.268-.691 12.041 1.325-.642 2.676-1.641 2.501-3.28-.168-1.581-1.437-2.822-2.094-4.19-.372-.774-1.857-4.499-1.343-3.429 1.529 3.182 3.583 8.849 5.858 11.216 2.65 2.757 4.238-.14 1.627-1.693m-1.831-9.142c10.19 16.818-2.704-2.052.265-5.354 2.872-3.195 6.267 2.941 7.342 4.889 1.873 3.393 3.717 12.196.813 3.132m4.394-17.141c-.173.635-5.639 16.639-1.546 15.152 1.739-.632 3.486-2.063 4.413-3.704 1.071-1.894 1.57-4.491.793-6.581-.529-1.425-1.101-2.947-1.83-4.275-1.733-3.155 2.937 6.594 4.332 9.925 2.043 4.877 6.966 21.976-4.637 18.58-5.061-1.481-.295-9.671-.793-9.671"/>
  <path stroke="#00ADB5" stroke-linecap="round" stroke-linejoin="round" stroke-opacity=".5" d="M241.434 206.765c1.819-.52 3.371-1.044 4.65-2.542.504-.59.573-1.344.83-2.059.335-.929-.082-2.118-.367-3.01-.229-.713 1.02-1.113 1.466-1.143.766-.051 1.352.456 2.089.501.885.054 1.829.349 2.442 1.068.417.487.975.602 1.435 1.025.437.401.783 1.101 1.099 1.615.915 1.487 1.173 3.222 1.439 4.923.128.816.205 1.703.073 2.527-.158.984.01 1.93-.363 2.873-.258.651-.671 1.514-1.258 1.899-.603.395-1.163.537-1.317 1.356-.321 1.71.504 3.385.186 5.111-.282 1.533-2.229 1.767-3.432 2.013-.831.169-2.341.434-3.142-.019-1.491-.844-2.571-1.898-3.678-3.241-.98-1.19-1.35-2.929-1.48-4.45-.132-1.553-.133-3.239-.1-4.809.023-1.042.314-2.089.409-3.128.078-.85.337-.918-.082.17"/>
  <path stroke="#00ADB5" stroke-linecap="round" stroke-linejoin="round" stroke-opacity=".5" d="M251.977 199.027c.615-1.649 1.291-3.297 1.762-4.998.211-.764.262-1.574.526-2.32.307-.867.459-1.847.591-2.754.094-.65.14-1.801.712-2.211.418-.299.656-.982 1.104-1.341.574-.462 1.391-.891 1.798-1.507.4-.606.826-1.856.49-2.556-.187-.389-.161-.808-.345-1.191-.239-.498-.454-.902-.636-1.441-.158-.471-.657-1.412-.077-1.747 1.419-.82 1.517.47 1.957 1.648.227.609.262 1.352.472 1.984.144.433.4.12.595.369.294.374.309.842.531 1.247.333.606-.058 1.835-.227 2.428-.313 1.098-.635 2.092-1.099 3.147-1.194 2.715-3.141 5.002-4.476 7.634-.508 1.001-.915 2.01-1.163 3.118-.14.63-.554 1.229-.554 1.894 0 .607-.144.918.164-.042"/>
  <path stroke="#00ADB5" stroke-linecap="round" stroke-linejoin="round" stroke-opacity=".5" d="M258.352 178.534c-1.041.166-2.176.229-3.106.713-.128.066.071-.107.163-.118 1.246-.153 2.607-1.309 3.742-1.871.844-.418 1.998-1.36 2.96-1.36.279 0-.926.807-1.062.935m-3.76 3.571c1.158-.7 3.175-1.46 4.023-2.636.082-.114.143-.268.263-.34.421-.25-.323.029-.445.085m-3.024 3.997c1.39-.554 3.931-1.046 4.695-2.636.11-.23-.135-.17-.282-.17m-2.942 2.636c-.088 1.95-.069 3.933-1.139 5.603-.522.814-.884 1.356-1.067 2.31-.196 1.019-.411 1.87-.858 2.801-.442.919-.959 1.67-1.394 2.551-.226.457-.781.898-.672 1.446.055.277-.078.526-.164.784-.255.768-.732 1.444-1.18 2.107-.304.45-.3 1.258.1.425"/>
  <path stroke="#00ADB5" stroke-linecap="round" stroke-linejoin="round" stroke-opacity=".5" d="M252.958 197.071c.737.167 1.859.68 2.615.68.014 0-.643-.824-.736-.935m-1.389-3.231c1.043.463 2.088.922 3.124 1.403.242.112.228.129.145.042-.18-.187-.332-.389-.49-.595m-1.798-3.146c1.256.406 2.511.844 3.782 1.2.142.04.341.119.204-.029-.274-.294-.589-.555-.881-.831m-2.451-3.231c1.43.727 2.854 1.511 4.322 2.159.241.106.322.184.272-.015-.067-.269-.167-.524-.263-.784m-2.534-3.401c.13.065 4.087 2.298 3.76 1.445m-2.942-2.806c1.194.292 2.401.558 3.595.766m-2.288-2.126c.545.027 1.09.055 1.635.085m-12.422 25.425c-.568.235-4.066 1.14-4.087 2.145-.008.392 0 .786.046 1.176.14 1.211.95 1.845 1.943 2.424 1.262.735 2.62.758 3.995.34 1.308-.398 2.158-1.902 1.635-3.194-.108-.268.267-.322.023-.633-.238-.302-.394-.127-.777-.047"/>
  <path stroke="#00ADB5" stroke-linecap="round" stroke-linejoin="round" stroke-opacity=".5" d="M246.501 212.292c.651-1.712 1.462-3.422 1.839-5.229.099-.474.221-.872.468-1.299.521-.904.98-1.869 1.289-2.873.294-.953.313-1.893.7-2.825.138-.332.962-1.329.608-.869m1.553.85c-.304 1.97-.759 3.855-1.081 5.802-.178 1.079-.472 1.981-.472 3.118 0 .812.279 1.49.1 2.305-.206.939-.392.476-.754-.17m1.389-11.055c-.568 1.23-1.798 3.252-1.798 4.805 0 .883.055 1.82-.004 2.716-.071 1.066-.87 2.447-1.349 3.364-.158.304-.365.539-.463.869-.122.412-.035.437-.308-.019"/>
  <path stroke="#00ADB5" stroke-linecap="round" stroke-linejoin="round" stroke-opacity=".5" d="M246.256 210.507c1.392 1.036 3.849 3.15 5.558 1.322.266-.285.651-.893.799-1.256.202-.497-.452-.075-.881.019m-3.841-1.616c.793-.026 2.398.197 3.169-.217.025-.014-.059.009-.082.028-.076.063-.234-.04-.309-.066m-1.88-2.891c.583.16 2.691 1.094 2.779.085m-1.798-2.636c.722.49 3.653 2.761 3.188.34m-2.37-1.531c.735.199 1.471.397 2.206.595m1.39-.595c.909.892 2.725 2.966 2.778 4.526.044 1.272 0 2.502 0 3.789 0 .936.172 1.935.082 2.825-.118 1.168-1.843 1.183-1.43 2.556.137.458.018.729.404 1.058.333.284.575.613.699 1.063.288 1.05-.286 1.998-.981 2.721-.435.452-.999 1.361-1.512 1.658-.253.147-.772.042-1.062.042-.269 0-.814.183-1.058.298-.359.17-.815-.13-1.271.043"/>
  <path stroke="#00ADB5" stroke-linecap="round" stroke-linejoin="round" stroke-opacity=".5" d="M241.434 207.02c.33 1.139.575 2.086 1.126 3.062.227.4.196.764.096 1.233-.117.544-.499 1.821-.2 2.38.459.86.449 1.77.449 2.722 0 .917 1.378 1.315 1.83 1.785.671.699.38 1.59 1.485 1.895.241.066.619.07.808.231.143.122.311.428.499.463.389.074.911-.007 1.263.156.293.136.508.332.776.487.296.17.7-.021 1.022.146 1.099.572.608.028-.164-.614m-90.32-56.655c-2.184 2.908-11.56 14.542-3.571 17.175 2.48.817 5.707-1.062 8.38-.79 3.779.383 5.903 3.726 6.833 7.197 1.07 3.997-4.837 11.105-1.997 13.254 4.864 3.68 11.868-2.543 15.888 2.399 2.278 2.801-.118 6.871 1.293.263m82.849-84.789c2.105 2.902 7.114 9.439 8.998 13.166 1.604 3.173-.417 3.046-2.137 1.785-2.056-1.507-1.768-4.713-1.181-6.934 1.981-7.496 14.805-14.388 16.253-2.867.509 4.047-2.968 10.851-7.705 9.245-6.253-2.12-5.854-12.05-1.124-15.74 4.837-3.776 12.766.562 12.766 6.729 0 6.846-7.821 8.966-10.854 2.926-2.757-5.49 2.128-11.233 7.367-12.055 1.927-.302 6.904 2.014 3.43 3.219m79.971 52.664c-3.277 3.388-13.635 11.289-4.92 14.365 5.07 1.79 9.764-1.144 12.906-5.149 3.467-4.419 4.055-11.408-1.462-14.278-4.291-2.232-7.989-5.818-11.585-.205m116.92 51.611c-6.258 3.879-15.761 8.564-6.073 12.23 1.489.563 2.458.196 3.768-.761 4.843-3.541 5.127-4.959 4.836-10.416-.193-3.613-5.271-2.787-7.592-1.58-3.424 1.781-5.812 5.346-7.199 8.953-1.866 4.854 7.781 4.557 9.111-1.287.834-3.664-3.194-8.868-5.961-4.389-3.667 5.935 1.928 11.242 5.455 5.033 3.378-5.948-4.515-8.401-6.636-1.463-2.79 9.122 13.792-.783 7.761-3.921-3.596-1.87-9.666 10.007-3.037 7.051 8.049-3.589-.956-8.879-.956-.497 0 6.802 10.812-3.069 3.768-5.735-1.611-.609-3.201 4.746-2.053 5.94 1.996 2.076 5.464-3.301 5.286-5.237-.76-8.311-8.579 12.818.732 3.13 2.126-2.213 2.039-6.213-1.491-3.862-2.083 1.387-3.401 7.275.534 5.91 3.78-1.311 3.779-8.594-.281-6.905-2.478 1.032-3.375 4.681-6.045 4.126m-48.591 47.924c-1.044 1.2-17.722 22.611-9.335 11.703 1.918-2.495 3.68-4.949 6.298-6.7 1.614-1.08 3.169-1.746 4.556-3.189 1.515-1.577-.633-1.473-.985 1.814-.305 2.862-.071 15.359-.534 15.331-3.126-.191-5.176-3.393-8.07-4.447-1.55-.565-6.147.248-4.865-.82 3.135-2.609 12.737-10.092 9.898-7.138-2.15 2.237-6.57 10.647-5.061 7.899 1.073-1.954 3.975-8.32 3.543-7.256-.89 2.193-2.439 5.95-2.306 8.368.126 2.295 4.507-3.353 4.78-3.921 2.031-4.226-2.171 5.278-.674 3.014 1.347-2.04 5.903-7.225 2.643-2.136-.714 1.114 3.378-4.024 2.643-2.926-.213.319-2.068 3.556-.984 2.429 3.88-4.038-1.838.16-2.559-.966m-32.9 76.363c1.772-2.625 11.897-14.207 3.572-14.717-1.407-.086-4.309-.561-5.484.439-2.794 2.379-1.582 8.795 2.194 9.509 5.007.947 9.699-6.177 4.274-8.924-5.669-2.869-19.049 8.656-13.273 13.4 11.373 9.342 21.657-17.805 6.946-13.897-13.343 3.545-1.588 17.845 4.471 8.631 6.487-9.865-13.517-9.95-9.983 1.083 1.744 5.441 7.465 2.815 8.493-1.58 1.506-6.444-4.653-3.783-4.753.673-.106 4.775 6.965-3.865 2.728-3.482-3.062.277-3.364 4.652-5.765 4.652M197.4 309.664c1.022 4.825 3.037 19.424 3.037 14.482 0-3.411-2.505-6.594-3.009-10.006-.177-1.192.187-4.718-.788-5.529-.666-.555 5.636 4.549 7.311 5.529 3.057 1.789 5.248 5.131 7.902 1.58 1.274-1.704 5.023-1.94 5.539-2.37 3.748-3.119 3.404-7.775 4.275-11.849.31-1.453-.478 4.961-.478 6.846 0 2.412.418 5.606 1.04 7.871.883 3.216.53-5.861-.309-7.607-1.363-2.837-1.238-5.354-1.238-8.427 0-1.213 8.462 13.995 6.974 15.156-.622.485-8.907-1.893-11.416-1.053-2.162.722-4.137 1.566-6.187 2.633-.56.291-1.485 1.353-1.124 1.053 1.285-1.07 5.216-3.994 3.655-3.452-2.144.743-4.251 2.902-6.186 4.096-3.648 2.249-4.828 1.935-6.355 5.793-.22.556 2.503.485 3.037.643 3.83 1.139 6.238-1.965 9.617-3.393 4.361-1.844 9.376-5.63 14.059-6.203 3.536-.433-1.84-1.723-2.024-2.107m166.016-206.442c9.539-3.182 24.988-6.841 33.518-14.1024 1.548-1.3176 3.945-2.5806 3.403-5.1201-2.038-9.54-6.471-11.7774-15.213-10.7668-4.849.5605-9.502 5.214-14.003 7.1096-4.634 1.9515-9.27 4.5155-13.498 7.3144-4.278 2.8329-1.799 4.2361-1.799 9.1283 0 2.69 1.544 6.437 4.302 6.437 1.257 0 4.86-1.053 1.293-1.053-2.799 0-7.144.441-9.645-.937-1.909-1.052 1.861-3.123 2.756-3.247 3.199-.444-3.666 2.812-4.358 3.043-1.425.474 5.14-4.703 1.49-3.482-3.957 1.323 1.916-2.2255 3.149-2.8674 1.393-.7245.178.4225.507-.1755.525-.957 3.567-4.4727.815-1.6092-.921.9586 2.079-1.6351 3.093-2.4869 1.909-1.6044-.513.8298-.984 1.2288-2.171 1.8387-2.68.355-4.443 1.1703-.737.3408-2.531 1.4711-2.531.1463 0-2.2857 7.752-3.327 9.167-3.3939 8.67-.41 14.737-4.3892 22.721-6.466 3.842-.9993 8.041-2.4387 11.641-4.2131 2.67-1.316 8.019-5.4362 10.854-4.5934 1.114.3311-16.073 10.7364-11.135 7.3436 4.084-2.8065 8.769-4.7772 2.643.4974-4.907 4.2256 3.726-.6963 4.415-.4096 1.238.5152-7.622 5.7797-.872 2.5454 2.581-1.2369 4.724-1.298 4.724-4.2131 0-3.957 1.041-8.647-3.796-6.817-5.581 2.1116-10.06 6.6251-15.831 8.3969-3.978 1.2215-7.854 2.7639-11.754 4.2132-4.526 1.6816-12.717 3.5621-15.944 7.6655-1.719 2.1869-4.782 10.7097 1.547 7.0217 5.806-3.383 6.73-10.2271 9.842-15.6235 1.545-2.6804-2.694 5.6613-3.318 8.7188-.719 3.5167 2.462 7.5637 6.101 6.9047 3.993-.722 8.192-6.4587 9.617-9.9475 6.85-16.7686-5.574-.5047-2.052 3.1599 3.737 3.8886 9.433-6.4132 10.179-8.9529.898-3.0601 1.426-6.8321 2.502-9.7428 1.396-3.7752-7.514.4766-8.351.9069-4.634 2.3831-7.87 5.562-11.023 9.7721-1.141 1.524-5.722 8.6971-2.587 10.328 4.202 2.1853 9.36-4.608 9.476-8.1336.396-11.943-9.055-5.8222-14.762-1.1411-3.527 2.8926-.463 8.6738.168 8.0166M262.693 392.346c-.22.183-8.548 7.657-8.548 5.53 0-1.246.921-2.58 1.743-3.394 1.624-1.61 8.041-2.849 6.495 1.083-1.036 2.636-5.272 6.522-6.467 1.55-.496-2.064 2.91-6.207 4.977-4.447 2.28 1.941-2.622 4.414-4.162 3.54-2.75-1.561.553-7.118 3.206-5.968 2.775 1.203-1.041 4.491-2.306 5.149-2.956 1.538-2.542-.948-4.049-2.516m-128.055-1.053c2.918 5.002 8.474 10.193 2.812 14.746-1.461 1.174-10.077 5.869-9.561.409.629-6.649 10.152-6.797 10.742-12.756.583-5.894-12.945-3.673-16.028-7.666-1.932-2.501-3.49-8.043-3.037-11.235.176-1.243 3.205-3.655 2.896-1.404-.566 4.12-13.334 14.674-5.764 18.14 5.075 2.323 6.384-3.559 10.123-4.974 7.701-2.914-3.825 18.697-3.825 13.166m259.654 60.037c-2.344 5.771-7.086 23.557-7.086 17.291 0-.977.182-1.749.506-2.662 1.524-4.291 3.288-8.284 5.849-12.055 1.398-2.058 3.063-8.085 5.061-3.511.933 2.134 3.6 8.076 2.475 10.416-1.412 2.938-5.794 4.623-8.717 4.74-.761.03-8.746 1.122-6.158-1.346 3.04-2.9 5.982-11.72 10.573-12.317.708-.093 2.189.4 2.812.76 1.096.634-.24 1.779-.76 2.663-.623 1.06-5.558 8.221-5.567 7.899-.14-4.799 4.592-11.766 7.142-15.389.915-1.3-3.951 7.519-5.061 9.509-.86 1.539.261 4.811-3.6 4.008M216.633 36.8648c-2.258 9.1921-4.27 17.9503-5.089 27.3267-.082.9379-.652 1.5443-.085 2.2821.845 1.0981 3.078-5.8839 3.937-7.7533 2.724-5.9254 5.793-8.2637 5.793-15.5359v-3.1013c0 3.3854.616 6.7313.393 10.1232-.168 2.5637-2.533 9.4826-.787 7.6655 2.695-2.8046.536-16.8669-3.684-17.2328-5.759-.4994-8.536 12.49-9.195 16.5306-.765 4.7012 2.42 6.6694 5.933 3.0136 4.796-4.9898 5.836-15.2485 1.716-21.0948-5.661-8.032-9.376 6.4604-9.842 10.0061-1.054 8.0206 3.251 10.5908 8.351 4.8861 1.876-2.0982 5.658-5.7263 4.865-8.9822-1.055-4.3308-7.207-.1253-8.436 1.7555-1.741 2.667-1.719 9.3101 1.097 11.2057 2.629 1.7699 5.187-5.5639 4.893-7.4022-1.249-7.7963-15.373 4.58-8.352 9.0114 6.111 3.8568 10.162-13.3979 2.643-11.2642-2.093.5941-7.066 6.4659-2.755 6.4659M82.5042 186.957c-2.2745 6.705-3.9119 10.985-9.6731 14.746-1.4465.944-3.3581 2.615-3.6555 4.506-.6353 4.04 5.4893 8.492 8.9701 7.285 7.3342-2.544-3.7641-10.097-4.949-12.289-2.0631-3.816 5.3934-10.671 8.8295-8.66 2.6746 1.566 3.8602 7.021 2.2776 9.684-2.3055 3.881-7.2608 4.034-11.1352 3.424-3.0856-.487-9.2662.175-7.4516 4.944 2.2705 5.968 12.9865 2.84 14.5939-2.223 1.5649-4.93-6.9072-6.788-5.0896-11.411 1.2484-3.175 5.1905-7.139 8.6888-7.139 4.1905 0 .0057 8.145-.6186 9.421-2.7567 5.638-6.9745 6.2-12.3162 7.724-10.0536 2.868.777 3.272 1.4059 0m-2.0246 52.138c-1.0745 4.209-4.2512 11.394-3.9367 15.974.1473 2.147.7109-4.241.956-6.378.4672-4.071 1.0016-8.669 3.0932-12.23.3712-.632 8.9556 10.518 9.7292 12.347 2.0705 4.896-.5217 3.964-3.7679 5.559-1.8043.887-14.1159 5.409-14.1159 4.213 0-1.252 2.321-3.797 2.8681-4.857 1.7125-3.315 3.5499-7.477 4.2742-11.176 1.5468-7.901.3936 8.358.3936 9.597 0 .751.2808 5.149-1.4059 5.149-2.1109 0 1.4271-4.134 2.137-6.203.753-2.193 3.7499-8.658 3.0088-10.971-1.0496-3.277-1.5747 6.759-1.6871 10.211-.0763 2.339-1.1643 6.244.5905 2.457.5591-1.206 2.364-6.154 2.3339-5.793-.2545 3.045-1.4341 6.184-1.4341 9.246 0 3.133 1.5886-6.954 4.3303-8.251.6817-.322-.2811 5.624-.2811 6.495 0 1.585 1.4622-6.091 1.4622-4.506 0 .442-.6067 3.113-1.0686 2.283-1.8929-3.402-3.317-5.505-7.1985-6.73-1.7678-.558-7.3869-.175-5.5395-.175 1.2143 0 3.1214-4.397 4.4709-3.248 1.7906 1.524-.6668 6.39-1.2372 8.046-.934 2.711-1.5188-1.102.7873-.819 2.403.294-.0486 9.526 1.2935 7.431.6229-.972 2.5098-5.768 2.4464-5.208-1.2252 10.836-.9703-2.962 1.0404.176M320.9 115.861c6.44-.331 12.658 2.146 11.641-5.793-.504-3.934-2.623-10.3658-1.518-14.2196 1.172-4.0914 8.372-13.3185 2.221-16.2088-5.158-2.4237-11.899 4.4302-12.85 9.0699-.396 1.9297-.312 7.9581 2.755 7.9581 2.318 0 3.798-2.3677 5.821-.2633 2.644 2.751 3.116 5.2607 1.237 8.7187-4.509 8.301-22.35-.971-12.738-10.9716 1.318-1.3707 6.528-7.6574 8.998-5.8515 3.398 2.4845 2.939 8.953 1.181 12.1711-1.752 3.209-8.184 6.57-10.713 2.458-1.25-2.032-.652-3.3941 1.434-3.3941"/>
  <path stroke="#00ADB5" stroke-linecap="round" stroke-linejoin="round" stroke-opacity=".5" d="M374.822 165.146c.594-.25 19.11-9.761 18.249-4.535-.462 2.804-.153 5.42.225 8.221.145 1.072 2.655 9.421.141 9.421-4.685 0-9.257-2.448-13.947-1.521-1.945.384-5.817 1.77-5.962-1.463-.108-2.425-2.044-13.324 2.559-12.259 3.794.877 3.959-2.256 1.265 4.71-.382.989-2.895 8.42-2.474 8.075 4.21-3.442 6.52-10.06 10.376-14.073 2.408-2.505-1.72 7.551-2.221 8.807-2.563 6.418 3.986-5.439 4.724-6.612 3.236-5.151.779 4.07.281 5.588-1.498 4.563 3.105-3.957 4.949-5.091 6.108-3.756.337 9.216-.956 6.525m-67.082 93.434c.291 7.741.161 11.964 6.467 7.08 1.79-1.385 1.029 1.893.591 2.692-.733 1.335-5.03 8.044-.703 5.471 1.095-.651 4.049-1.951 4.049.556 0 .396-1.324 5.24-.028 3.891 2.124-2.21 2.162-10.542 2.277-13.78.026-.707.323-1.529-.281-1.17-3.102 1.844-4.575 11.502-6.186 15.272-1.39 3.255-5.399-.58-7.705-2.106-4.37-2.894-1.621-.839-1.518-1.054m-31.887 52.138c-.019.245-.613 15.363-.507 8.017.033-2.243-.029-4.487 0-6.73.084-6.369 1.177-3.414 3.825-.79 1.214 1.203 5.668 3.8 4.949 6.232-.212.717-7.363 2.012-8.492 2.458-.848.334-5.849 3.611-5.849 3.452 0-3.913 1.324-8.148 1.771-12.054.947-8.271 6.447 13.87 6.805 8.28.085-1.316.028-9.15.028-7.197 0 1.455 1.013 9.21 1.013 4.125v-3.452c0-.543.284 2.054.478 1.55.701-1.824-.478-5.492-.478-1.024 0 5.016-1.352 1.405-4.303 1.405-2.524 0-3.97 9.625-2.671 7.372 1.138-1.972-1.103-10.005-.112-5.88.518 2.159 1.765-.228 2.53-1.024"/>
  <path fill="#F5B9AB" fill-rule="evenodd" d="M301.751 277.529c-2.351-.888-4.59-2.186-6.633-3.988-15.423-13.603-8.81-34.127.524-44.812 9.334-10.685 66.431-6.423 39.496 43.077-.113.07-.229.142-.347.213-3.011 9.921-.472 18.43 2.576 28.64 1.242 4.164 2.57 8.611 3.639 13.552l-28.567-2.119c-7.852-11.038-10.828-22.166-10.688-34.563Z" clip-rule="evenodd"/>
  <path fill="#000" d="m295.118 273.541-.449.53.449-.53Zm6.633 3.988.231-.661c.28.106.466.38.462.682l-.693-.021Zm-6.109-48.8-.522-.474.522.474Zm39.496 43.077.608.35c-.057.104-.139.191-.238.253l-.37-.603Zm-.347.213-.663-.219c.05-.163.156-.301.3-.388l.363.607Zm2.576 28.64.663-.194-.663.194Zm3.639 13.552.677-.14c.047.216-.008.441-.149.606-.14.166-.35.254-.566.238l.038-.704Zm-28.567-2.119-.038.704c-.207-.016-.398-.124-.521-.297l.559-.407Zm-16.872-39.08c1.974 1.741 4.139 2.996 6.415 3.856l-.462 1.322c-2.426-.916-4.74-2.257-6.851-4.119l.898-1.059Zm.597-43.809c-4.59 5.254-8.504 12.926-9.379 20.928-.87 7.971 1.272 16.257 8.782 22.881l-.898 1.059c-7.913-6.98-10.175-15.757-9.262-24.12.911-8.333 4.969-16.265 9.713-21.696l1.044.948Zm38.366 42.253c6.69-12.294 8.093-21.656 6.439-28.612-1.649-6.932-6.372-11.621-12.27-14.511-5.911-2.897-12.96-3.962-19.113-3.638-3.073.163-5.901.671-8.234 1.457-2.345.79-4.132 1.842-5.188 3.051l-1.044-.948c1.278-1.463 3.317-2.615 5.775-3.443 2.471-.833 5.424-1.358 8.596-1.526 6.336-.334 13.628.756 19.792 3.777 6.175 3.027 11.26 8.017 13.033 15.472 1.768 7.432.208 17.165-6.57 29.621l-1.216-.7Zm-.102-.044c.116-.07.229-.14.341-.21l.739 1.207c-.116.072-.234.145-.354.218l-.726-1.215Zm2.276 29.441c-3.039-10.182-5.658-18.897-2.576-29.053l1.326.438c-2.94 9.686-.48 17.99 2.576 28.227l-1.326.388Zm3.625 13.499c-1.063-4.91-2.382-9.332-3.625-13.499l1.326-.388c1.242 4.162 2.577 8.634 3.653 13.606l-1.354.281Zm-27.851-2.964 28.567 2.12-.077 1.407-28.567-2.119.077-1.408Zm-10.034-33.838c-.139 12.258 2.799 23.232 10.555 34.135l-1.119.814c-7.948-11.174-10.964-22.454-10.822-34.99l1.386.041Z"/>
  <path fill="#00ADB5" stroke="#000" stroke-width="1.39887" d="M340.263 241.913c4.47 6.439-.345 22.342-3.897 26.32 29.436-16.91 10.8-55.063 1.718-48.106-1.48-14.105-17.114-19.082-27.771-7.152-26.719-22.34-28.125 15.726-18.694 21.515 9.431 5.789 20.873.276 26.811 3.261 5.938 2.986 9.602 21.068 11.526 11.032 1.923-10.036 4.719-14.918 10.307-6.87Z"/>
  <path fill="#EEE" stroke="#000" stroke-width="1.39887" d="m366.681 522.795-41.434-3.113 9.972-115.47s-48.074-117.944-6.806-117.945c58.309 0 77.807 93.01 77.08 117.945-.727 24.935-38.812 118.583-38.812 118.583Z"/>
  <path fill="#F5B9AB" stroke="#000" stroke-linejoin="round" stroke-width="1.39887" d="m324.857 525.365.656-5.902 41.726 1.736-.997 9.086c-1.444 13.151-14.604 21.545-27.165 17.327-9.373-3.147-15.31-12.435-14.22-22.247Z"/>
  <path fill="#EEE" stroke="#000" stroke-width="1.39887" d="M264.791 439.7c-26.953-27.056 6.542-116.676 12.004-127.341 7.954-15.199 31.826-41.639 63.688-25.811 48.18 23.936 26.163 142.368 17.503 183.421L264.791 439.7Z"/>
  <path fill="#00ADB5" stroke="#000" stroke-width="1.4" d="m349 457-114-10s-57.72 10.907-93.5 20c-35.746 9.084-90.5 26.5-90.5 26.5l4.5 40.5 175.5 6s78.5 25 108.5-7.5S349 457 349 457Z"/>
  <path fill="#00ADB5" fill-rule="evenodd" d="M177.105 462.407 159.188 520.1l-37.592-1.901-17.155-107.647c-2.858-17.933 10.469-34.022 28.182-34.022h22.978l1.607-2.6 7.956 2.65c5.258.306 10.083 2.015 14.186 4.725l159.806 53.221c24.701 8.226 35.637 37.751 22.663 61.19l-23.027 41.602c-12.938 23.374-43.225 29.066-62.877 11.818l-98.81-86.729Z" clip-rule="evenodd"/>
  <path fill="#000" d="m177.105 462.407.461-.525-.809-.711-.32 1.029.668.207ZM159.188 520.1l-.035.699.542.027.161-.518-.668-.208Zm-37.592-1.901-.691.11.09.56.566.028.035-.698Zm-17.155-107.647-.691.11.691-.11Zm28.182-34.022v.7-.7Zm22.978 0v.7h.39l.205-.332-.595-.368Zm1.607-2.6.221-.663-.526-.175-.29.47.595.368Zm7.956 2.65-.221.664.088.029.092.005.041-.698Zm14.186 4.725-.385.583.077.051.087.029.221-.663Zm159.806 53.221-.221.663.221-.663Zm22.663 61.19-.612-.339.612.339Zm-23.027 41.602-.612-.339.612.339Zm-62.877 11.818.462-.526-.462.526ZM176.437 462.2l-17.917 57.693 1.336.415 17.917-57.693-1.336-.415Zm-17.214 57.202-37.592-1.902-.07 1.397 37.592 1.902.07-1.397Zm-36.936-1.313-17.156-107.647-1.381.22 17.155 107.647 1.382-.22Zm-17.156-107.647c-2.793-17.53 10.23-33.212 27.492-33.212v-1.399c-18.164 0-31.795 16.494-28.873 34.831l1.381-.22Zm27.492-33.212h22.978v-1.399h-22.978v1.399Zm23.573-.332 1.607-2.6-1.19-.736-1.607 2.601 1.19.735Zm.791-2.304 7.956 2.65.442-1.328-7.956-2.649-.442 1.327Zm8.136 2.684c5.13.299 9.837 1.966 13.842 4.61l.771-1.167c-4.202-2.774-9.146-4.525-14.531-4.839l-.082 1.396Zm14.006 4.69 159.806 53.221.442-1.327-159.806-53.221-.442 1.327Zm159.806 53.221c24.263 8.081 35.046 37.11 22.272 60.188l1.224.677c13.173-23.799 2.086-53.819-23.054-62.192l-.442 1.327Zm22.272 60.188-23.027 41.602 1.224.678 23.027-41.603-1.224-.677Zm-23.027 41.602c-12.732 23.001-42.502 28.572-61.803 11.631l-.923 1.051c20.002 17.556 50.805 11.743 63.95-12.004l-1.224-.678Zm-61.803 11.631-98.811-86.728-.922 1.051 98.81 86.728.923-1.051Z"/>
  <path fill="#EEE" stroke="#000" stroke-linejoin="round" stroke-width="1.39887" d="m121.164 517.76 38.439 2.353 2.981 33.41s-33.723-1.012-54.179-7.637l13.75-6.996-.991-21.13Z"/>
  <rect width="97.2116" height="17.6874" fill="#EEE" stroke="#000" stroke-width="1.39887" rx="2.00878" transform="matrix(.250552 .968103 .963608 -.267319 108.208 274.217)"/>
  <rect width="94.1065" height="18.2683" fill="#00ADB5" stroke="#000" stroke-width="1.39887" rx="2.00878" transform="matrix(-1 0 0 1 222.934 358.8)"/>
  <path fill="#EEE" stroke="#000" stroke-linejoin="round" stroke-width="1.39887" d="m50.8667 493.005 4.7545 40.64-28.6933 8.199s-5.4061-35.015-2.7864-57.382l9.4761 12.89 17.2491-4.347Z"/>
  <path fill="#EEE" d="m193.357 387.895 21.533-37.146 66.021 37.22c-3.027-42.956 25.451-104.775 55.355-101.01 52.461 6.606 13.812 140.484-20.555 164.082-34.366 23.598-122.354-63.146-122.354-63.146Z"/>
  <path stroke="#000" stroke-width="1.39887" d="M357.155 371.123c-8.12 35.223-25.257 70.803-41.443 81.918-34.367 23.598-122.355-63.146-122.355-63.146l21.533-37.146 66.021 37.22 22.441-58.285"/>
  <path fill="#F5B9AB" stroke="#000" stroke-linejoin="round" stroke-width="1.39887" d="m211.148 348.062 3.945 2.921-21.694 36.942-6.448-4.758c-10.826-7.99-11.955-24.132-2.337-33.428 7.261-7.019 18.368-7.721 26.534-1.677Z"/>
</svg>
