<svg xmlns="http://www.w3.org/2000/svg" fill="none" viewBox="0 0 24 24">
  <g fill="#fff" clip-path="url(#a)">
    <path d="M23 10.9997H1c-.552285 0-1 .4477-1 1s.447715 1 1 1h22c.5523 0 1-.4477 1-1s-.4477-1-1-1Zm0-6.99939H1c-.552285 0-1 .44771-1 .99999 0 .55229.447715 1 1 1h22c.5523 0 1-.44771 1-1 0-.55228-.4477-.99999-1-.99999ZM23 18H1c-.552285 0-1 .4477-1 1s.447715 1 1 1h22c.5523 0 1-.4477 1-1s-.4477-1-1-1Z"/>
  </g>
  <defs>
    <clipPath id="a">
      <path fill="#fff" d="M0 0h24v24H0z"/>
    </clipPath>
  </defs>
</svg>
